<?xml version="1.0" encoding="UTF-8"?>
<svg version="1.1" xmlns="http://www.w3.org/2000/svg" width="596" height="263">
<path d="M0 0 C0.33 0 0.66 0 1 0 C1 2.64 1 5.28 1 8 C4.61973402 9.31626692 7.09567131 10 11 10 C12.96384165 8.94082766 12.96384165 8.94082766 14.75 7.5 C15.67039063 6.80390625 15.67039063 6.80390625 16.609375 6.09375 C17.06828125 5.7328125 17.5271875 5.371875 18 5 C24.84530961 12.57873564 27.19646004 20.98053811 27 31 C27.70125 31.02578125 28.4025 31.0515625 29.125 31.078125 C39.65261232 31.70749313 45.88582222 35.52592199 54 42 C51.61562796 44.45249695 49.31106472 46.76869546 46.5625 48.8125 C43.09188347 51.77522143 40.62204763 55.28768515 38 59 C40.97 59.99 40.97 59.99 44 61 C43.01 61.99 43.01 61.99 42 63 C42.33 63.99 42.66 64.98 43 66 C43.66 66 44.32 66 45 66 C45.67119549 67.4562545 46.33681807 68.91507867 47 70.375 C47.556875 71.59316406 47.556875 71.59316406 48.125 72.8359375 C49 75 49 75 49 77 C50.98 77 52.96 77 55 77 C55.33 76.34 55.66 75.68 56 75 C57.66567548 74.66174849 59.33250681 74.32917373 61 74 C69.2196857 69.80302267 74.59997039 63.27548899 80 56 C79.48741346 61.63845192 77.96613755 65.8658293 75.375 70.875 C75.01599609 71.57826416 74.65699219 72.28152832 74.28710938 73.00610352 C71.40368029 78.51296995 68.12119854 83.33534671 64 88 C63.36191406 88.75667969 62.72382813 89.51335937 62.06640625 90.29296875 C58.20282687 94.78918101 54.17361836 98.75953425 49.56640625 102.4921875 C47.73487801 104.02173794 47.73487801 104.02173794 47 107 C58.04751059 99.04579238 66.56280222 91.13102876 74.1171875 79.7578125 C76 77 76 77 78 75 C78.34564715 81.96382293 77.05272599 88.61453826 75.88867188 95.46264648 C75.66158579 96.82318626 75.43500101 98.18380979 75.20887756 99.54450989 C74.59620808 103.22252847 73.97656455 106.89934118 73.35563087 110.57597232 C72.70692781 114.42432048 72.06468843 118.273747 71.42175293 122.12306213 C70.2044559 129.40512045 68.98137677 136.68619511 67.75620031 143.9669314 C66.36116365 152.25880799 64.97260219 160.55176475 63.5845747 168.84481704 C60.73023625 185.89775397 57.86779805 202.94932153 55 220 C50.81386921 220.67545765 46.62590304 221.33879077 42.4375 222 C41.25607422 222.19078125 40.07464844 222.3815625 38.85742188 222.578125 C33.18156175 223.468456 27.74817031 224.27010492 22 224 C23.66387551 210.61601894 25.74512803 197.32406128 28.06216431 184.03936768 C30.96682631 167.38096534 33.67778768 150.69240097 36.37182617 133.9987793 C36.53903168 132.96669342 36.70623718 131.93460754 36.87850952 130.87124634 C37.19389961 128.92444471 37.5078789 126.97741383 37.82022095 125.03012085 C37.9611618 124.16110138 38.10210266 123.29208191 38.24731445 122.39672852 C38.36911575 121.64069839 38.49091705 120.88466827 38.6164093 120.10572815 C38.99234193 118.04203912 39.46744579 116.02837043 40 114 C38.39125 114.2165625 38.39125 114.2165625 36.75 114.4375 C31.13864498 114.50789334 27.12975127 111.45999322 22.5390625 108.53125 C20.20873345 106.82785605 20.20873345 106.82785605 18 107 C18 106.34 18 105.68 18 105 C15.34771188 103.92474806 12.71631546 102.90543849 10 102 C10 101.34 10 100.68 10 100 C8.35 99.34 6.7 98.68 5 98 C1.12720646 100.62431894 -1.20443272 102.38327776 -2.28425598 107.02906799 C-2.56272546 108.6343366 -2.81369211 110.24453239 -3.04223633 111.85766602 C-3.18780975 112.7395459 -3.33338318 113.62142578 -3.48336792 114.5300293 C-3.95683692 117.4347164 -4.39444396 120.34361663 -4.83203125 123.25390625 C-5.1551108 125.277781 -5.48047703 127.30129193 -5.80802917 129.32444763 C-6.66328642 134.64441107 -7.48846581 139.96861074 -8.30712891 145.29431152 C-9.14518163 150.7139216 -10.00973491 156.12928795 -10.87304688 161.54492188 C-11.84208924 167.62881954 -12.80849541 173.71300841 -13.75361633 179.80067444 C-13.8976741 180.72599472 -14.04173187 181.651315 -14.19015503 182.60467529 C-14.4584272 184.33050364 -14.72524291 186.05655928 -14.99031067 187.78288269 C-15.5275938 191.23459011 -16.11599013 194.62087117 -17 198 C-16.03175293 197.84853516 -15.06350586 197.69707031 -14.06591797 197.54101562 C-10.45480298 196.97735483 -6.84278353 196.41968481 -3.23046875 195.86376953 C-1.67064736 195.62287672 -0.11107193 195.38038537 1.44824219 195.13623047 C3.6966288 194.78447139 5.94585312 194.43857386 8.1953125 194.09375 C9.23161301 193.92969666 9.23161301 193.92969666 10.28884888 193.7623291 C14.229958 193.16478148 18.01535411 192.89157426 22 193 C21.43781308 200.67070741 20.37618981 208.13539409 18.9375 215.6875 C18.59153014 217.52703417 18.24593296 219.36663846 17.90063477 221.20629883 C17.60042318 222.80419922 17.30021159 224.40209961 17 226 C-12.40236377 230.66590473 -41.92511566 233.16685715 -71.5894165 235.51538086 C-76.59583127 235.91491572 -81.60120302 236.32676206 -86.6066103 236.73869801 C-91.48355944 237.13894621 -96.36099393 237.5329926 -101.23860741 237.92505455 C-103.54014705 238.11049485 -105.8415649 238.29745428 -108.14284706 238.486063 C-120.1185998 239.46295761 -131.97893936 240.31204405 -144 240 C-144 239.67 -144 239.34 -144 239 C-99.45 231.08 -99.45 231.08 -54 223 C-53.01 217.39 -52.02 211.78 -51 206 C-56.28 206.33 -61.56 206.66 -67 207 C-67 204.03 -67 201.06 -67 198 C-64.75113762 197.49490792 -62.50086131 196.99610821 -60.25 196.5 C-58.37054688 196.08234375 -58.37054688 196.08234375 -56.453125 195.65625 C-53 195 -53 195 -49 195 C-48.86722656 193.96359375 -48.73445313 192.9271875 -48.59765625 191.859375 C-48.41939361 190.48956735 -48.24100138 189.11977656 -48.0625 187.75 C-47.97548828 187.06808594 -47.88847656 186.38617188 -47.79882812 185.68359375 C-47.3684062 182.39963389 -46.91205869 179.18809706 -46 176 C-48.31 176 -50.62 176 -53 176 C-52.67 173.69 -52.34 171.38 -52 169 C-48.535 168.01 -48.535 168.01 -45 167 C-43.68 160.4 -42.36 153.8 -41 147 C-42.98 147.33 -44.96 147.66 -47 148 C-49.12411996 148.06460219 -51.25002905 148.08611079 -53.375 148.0625 C-54.96441406 148.04896484 -54.96441406 148.04896484 -56.5859375 148.03515625 C-57.38257812 148.02355469 -58.17921875 148.01195312 -59 148 C-58.505 144.04 -58.505 144.04 -58 140 C-52.07704464 138.15730278 -46.1112924 137.0388092 -40 136 C-39.34 133.03 -38.68 130.06 -38 127 C-40.31 127 -42.62 127 -45 127 C-44.67 124.36 -44.34 121.72 -44 119 C-41.36 118.67 -38.72 118.34 -36 118 C-35.67 113.71 -35.34 109.42 -35 105 C-36.27875 104.835 -37.5575 104.67 -38.875 104.5 C-39.59429687 104.4071875 -40.31359375 104.314375 -41.0546875 104.21875 C-51.87551267 103.41508129 -62.61959045 104.61042367 -73.39453125 105.53125 C-75.27394663 105.6886115 -77.1533978 105.84554612 -79.03288269 106.0020752 C-83.95487824 106.41286497 -88.87647628 106.82822263 -93.79797363 107.24493408 C-101.69143817 107.91281803 -109.58537181 108.57507794 -117.47952843 109.23472595 C-120.22999629 109.46543383 -122.98021625 109.69894166 -125.73042297 109.93273926 C-127.41638406 110.07439473 -129.1023527 110.21596044 -130.78833008 110.35742188 C-131.930019 110.45560463 -131.930019 110.45560463 -133.09477234 110.55577087 C-136.7402614 110.85920278 -140.34142264 111.0739555 -144 111 C-140.73535307 108.82356871 -138.70619392 108.41128962 -134.87402344 107.73486328 C-133.60709656 107.50767609 -132.34016968 107.28048889 -131.03485107 107.04641724 C-129.64305213 106.80423048 -128.25122599 106.56219994 -126.859375 106.3203125 C-125.41649778 106.06431766 -123.97373011 105.80770469 -122.53106689 105.55050659 C-118.71380008 104.87173152 -114.89507228 104.20154792 -111.07598877 103.53308105 C-107.28019972 102.86713218 -103.48587854 102.19293442 -99.69140625 101.51953125 C-88.72105616 99.57538382 -77.74976822 97.63702897 -66.76757812 95.76074219 C-65.14955292 95.48337723 -65.14955292 95.48337723 -63.49884033 95.20040894 C-61.52794183 94.86344734 -59.55657319 94.52921933 -57.58465576 94.19827271 C-56.73333069 94.0527597 -55.88200562 93.9072467 -55.00488281 93.75732422 C-54.27295715 93.63396698 -53.54103149 93.51060974 -52.78692627 93.3835144 C-50.90806497 93.05801846 -50.90806497 93.05801846 -49 92 C-49.05220703 90.64068359 -49.05220703 90.64068359 -49.10546875 89.25390625 C-49.35919823 77.83607954 -47.37668351 69.56502527 -41 60 C-41.5416434 55.75066609 -44.06270674 52.49770943 -46.375 49 C-46.97441406 48.07574219 -46.97441406 48.07574219 -47.5859375 47.1328125 C-49.62455724 44.00782304 -51.71414732 40.94948733 -54 38 C-44.80022468 32.21832302 -39.17667557 30.11766756 -28 29 C-28 22.07 -28 15.14 -28 8 C-27.01 8 -26.02 8 -25 8 C-25 7.34 -25 6.68 -25 6 C-21.13116676 5.09222907 -17.53269271 4.86564737 -13.5625 4.875 C-12.47066406 4.87242188 -11.37882813 4.86984375 -10.25390625 4.8671875 C-7.08807476 4.99640511 -4.10964455 5.40902683 -1 6 C-0.67 4.02 -0.34 2.04 0 0 Z M19 8 C20 10 20 10 20 10 Z M20 12 C19.34 16.29 18.68 20.58 18 25 C18.99 25.495 18.99 25.495 20 26 C21.20568053 21.32798795 21.09382426 16.78503708 21 12 C20.67 12 20.34 12 20 12 Z M-49 37 C-49 37.33 -49 37.66 -49 38 C-47.78376953 38.22042969 -47.78376953 38.22042969 -46.54296875 38.4453125 C-37.50476401 40.27610135 -28.40632836 42.96560023 -22 50 C-21.34 49.67 -20.68 49.34 -20 49 C-22.87668213 44.94367123 -25.46545849 42.89297071 -29.9375 40.75 C-31.46697266 39.99976563 -31.46697266 39.99976563 -33.02734375 39.234375 C-37.17381985 37.51257941 -40.84272387 36.86174108 -45.3125 36.9375 C-46.529375 36.958125 -47.74625 36.97875 -49 37 Z M22 43 C22 43.66 22 44.32 22 45 C22.87140625 44.79503906 23.7428125 44.59007812 24.640625 44.37890625 C32.4388222 42.61502831 40.01566019 41.42407666 48 41 C48 40.67 48 40.34 48 40 C38.77349845 38.70197507 30.5674715 39.00184664 22 43 Z " fill="#FCFCFC" transform="translate(147,16)"/>
<path d="M0 0 C8.30464106 5.83358026 12.60954289 12.45727138 15.32421875 22.08203125 C16.23387137 29.54118271 15.38189459 36.62078928 13.94921875 43.95703125 C13.76987793 44.87766357 13.59053711 45.7982959 13.40576172 46.74682617 C9.91460164 63.73444615 3.02872868 73.96730717 -11.23828125 83.58203125 C-13.36328125 84.64453125 -13.36328125 84.64453125 -16.36328125 84.64453125 C-14.29048308 89.12177529 -12.09313894 93.15580871 -9.20703125 97.16015625 C-5.07930997 102.9887287 -1.24879117 108.98824462 2.57421875 115.01953125 C6.5347896 121.2581026 10.50785062 127.48174423 14.62109375 133.62109375 C19.5640065 140.9988823 24.3140564 148.49699381 29.07617188 155.9921875 C29.75228516 157.05308594 30.42839844 158.11398438 31.125 159.20703125 C31.72868408 160.15707031 32.33236816 161.10710937 32.9543457 162.0859375 C34.43878053 164.343502 35.98714502 166.50590373 37.63671875 168.64453125 C37.30671875 169.30453125 36.97671875 169.96453125 36.63671875 170.64453125 C35.79109375 169.71640625 34.94546875 168.78828125 34.07421875 167.83203125 C20.47100751 154.39108496 2.84602018 144.51306546 -15.23828125 138.58203125 C-22.64914623 136.08025114 -25.75736505 132.46680483 -29.36328125 125.64453125 C-30.39228756 124.01148488 -31.43464659 122.38679698 -32.48828125 120.76953125 C-33.04902344 119.86847656 -33.60976563 118.96742188 -34.1875 118.0390625 C-35.95376694 115.23700553 -37.81837332 112.51025169 -39.6953125 109.78125 C-40.58355713 108.46906494 -40.58355713 108.46906494 -41.48974609 107.13037109 C-42.67736713 105.37727723 -43.87911293 103.63365177 -45.09619141 101.90087891 C-48.66363162 96.58675986 -50.3134916 93.01991353 -49.36328125 86.64453125 C-49.26797119 85.887771 -49.17266113 85.13101074 -49.07446289 84.35131836 C-48.74187931 81.9587204 -48.34467002 79.58592982 -47.92578125 77.20703125 C-47.79107422 76.39298828 -47.65636719 75.57894531 -47.51757812 74.74023438 C-46.49847523 68.77972523 -46.49847523 68.77972523 -45.36328125 67.64453125 C-43.67923403 67.37224242 -41.99078636 67.12699413 -40.30078125 66.89453125 C-35.35404823 66.05719363 -31.97315322 64.58219383 -27.921875 61.66796875 C-26.36328125 60.64453125 -26.36328125 60.64453125 -24.36328125 60.64453125 C-24.11578125 60.10828125 -23.86828125 59.57203125 -23.61328125 59.01953125 C-22.36328125 56.64453125 -22.36328125 56.64453125 -20.36328125 54.08203125 C-17.48318242 49.13186138 -15.50625064 43.2349701 -16.87890625 37.484375 C-17.73995493 35.40936476 -17.73995493 35.40936476 -19.36328125 32.64453125 C-19.69328125 31.65453125 -20.02328125 30.66453125 -20.36328125 29.64453125 C-23.31735314 28.4949475 -26.20689565 28.52772402 -29.34765625 28.546875 C-30.28222656 28.55009766 -31.21679688 28.55332031 -32.1796875 28.55664062 C-33.14777344 28.56501953 -34.11585938 28.57339844 -35.11328125 28.58203125 C-36.09683594 28.58654297 -37.08039063 28.59105469 -38.09375 28.59570312 C-40.51699232 28.60746644 -42.94009494 28.62476839 -45.36328125 28.64453125 C-45.416231 29.31584548 -45.46918076 29.98715971 -45.52373505 30.6788168 C-46.07698082 37.25571805 -46.9232011 43.71864972 -48.02148438 50.22485352 C-48.26801003 51.71474037 -48.26801003 51.71474037 -48.51951599 53.23472595 C-49.057184 56.47747687 -49.60066887 59.71922021 -50.14453125 62.9609375 C-50.52211117 65.22724644 -50.89942632 67.4935995 -51.27648926 69.75999451 C-52.06406561 74.4883 -52.8544691 79.21612143 -53.64697266 83.94360352 C-54.6641616 90.01248669 -55.67477863 96.08244242 -56.68338776 102.15275669 C-57.45990857 106.8224238 -58.23957843 111.49156073 -59.02024841 116.16053581 C-59.39435282 118.39997113 -59.76753406 120.63956086 -60.13978577 122.87930489 C-60.65838576 125.99632954 -61.18114519 129.11262772 -61.70507812 132.22875977 C-61.85887436 133.15806305 -62.01267059 134.08736633 -62.17112732 135.04483032 C-62.31409744 135.88992661 -62.45706757 136.73502289 -62.60437012 137.60572815 C-62.72751335 138.34178063 -62.85065659 139.07783312 -62.97753143 139.83619022 C-63.36328125 141.64453125 -63.36328125 141.64453125 -64.36328125 143.64453125 C-66.98364258 144.23876953 -66.98364258 144.23876953 -70.4453125 144.71484375 C-71.68732422 144.88886719 -72.92933594 145.06289062 -74.20898438 145.2421875 C-74.8600415 145.32871582 -75.51109863 145.41524414 -76.18188477 145.50439453 C-78.15830347 145.76720716 -80.13288713 146.04370107 -82.10742188 146.3203125 C-91.73041001 147.64453125 -91.73041001 147.64453125 -96.36328125 147.64453125 C-95.72297125 137.4485076 -93.93439539 127.4526657 -92.23046875 117.39453125 C-91.91197771 115.4955074 -91.59388144 113.59641731 -91.27615356 111.69726562 C-90.43737337 106.68926107 -89.59389659 101.68205954 -88.74920654 96.67504883 C-87.42305121 88.80905141 -86.10424687 80.94181624 -84.78470612 73.07470703 C-84.29366176 70.14866079 -83.80172139 67.22276607 -83.30975342 64.296875 C-81.62705355 54.27654072 -79.96721627 44.25292756 -78.34472656 34.22265625 C-78.18253443 33.22073242 -78.02034229 32.21880859 -77.85323524 31.18652344 C-77.07807985 26.39384868 -76.3063557 21.60065353 -75.53952026 16.80664062 C-75.26484395 15.10155395 -74.99011743 13.39647535 -74.71533203 11.69140625 C-74.59239902 10.91565247 -74.46946602 10.13989868 -74.34280777 9.34063721 C-73.85724564 6.33840235 -73.32702466 3.53576148 -72.36328125 0.64453125 C-70.80432129 0.42518921 -70.80432129 0.42518921 -69.21386719 0.20141602 C-65.35207177 -0.34250242 -61.49067632 -0.88921584 -57.62939453 -1.43676758 C-55.95925473 -1.67320596 -54.28900793 -1.90888975 -52.61865234 -2.14379883 C-50.21553362 -2.48189376 -47.81281482 -2.8227148 -45.41015625 -3.1640625 C-44.66521912 -3.26827011 -43.92028198 -3.37247772 -43.152771 -3.47984314 C-13.46036608 -7.72024302 -13.46036608 -7.72024302 0 0 Z " fill="#FEFEFE" transform="translate(303.36328125,86.35546875)"/>
<path d="M0 0 C10.98932724 9.6670342 16.98290108 24.76927889 18.40234375 39.11328125 C20.10691696 67.50801244 14.88659969 95.59293211 -4.2578125 117.6171875 C-13.25524411 127.21544927 -23.93032264 136.0225657 -37.59765625 137.11328125 C-49.05844185 137.48346166 -58.53633823 134.25532069 -66.97265625 126.36328125 C-81.99413294 109.97054943 -84.3098835 89.07577756 -83.73388672 67.83544922 C-82.53602079 43.89959786 -71.64042606 19.84935247 -53.97265625 3.61328125 C-37.42338151 -10.17778104 -18.13137521 -13.1691041 0 0 Z M-42.6796875 33.51171875 C-53.6081324 48.33523057 -56.97165387 67.52136044 -54.97265625 85.55078125 C-53.78505439 92.69255024 -51.13502528 98.34728701 -45.59765625 103.11328125 C-39.98632737 104.53989029 -36.52098368 104.35518264 -31.4765625 101.47265625 C-28.23697302 99.12883684 -25.92591158 96.33957793 -23.59765625 93.11328125 C-23.16710937 92.53964844 -22.7365625 91.96601563 -22.29296875 91.375 C-18.04304609 85.21129229 -15.81700954 78.20873191 -13.59765625 71.11328125 C-13.22253906 69.91445312 -13.22253906 69.91445312 -12.83984375 68.69140625 C-9.78626643 56.56311324 -9.46506203 39.99661741 -15.81640625 29.00390625 C-18.3977247 25.41874173 -20.64248978 23.68907253 -25.03515625 22.92578125 C-33.07285748 22.69728473 -37.8105277 27.72900286 -42.6796875 33.51171875 Z " fill="#FEFEFE" transform="translate(442.59765625,70.88671875)"/>
<path d="M0 0 C-3.47373272 2.87420525 -7.3344159 4.69946565 -11.375 6.625 C-27.3216126 14.43710982 -44.98312524 24.97468786 -55 40 C-57.96920796 40.64090288 -60.79950381 41.10083253 -63.8046875 41.46484375 C-65.60288118 41.7101648 -67.40105774 41.95561143 -69.19921875 42.20117188 C-72.03828107 42.57232806 -74.87797714 42.93787911 -77.71826172 43.29956055 C-80.45748509 43.6530932 -83.19339857 44.02687228 -85.9296875 44.40234375 C-86.77771942 44.50353012 -87.62575134 44.60471649 -88.4994812 44.70896912 C-92.21528943 45.22435849 -94.46237265 45.5953382 -97.50439453 47.88500977 C-99.68205593 50.96452017 -100 53.25106177 -100 57 C-97.01786476 61.74083038 -93.08280096 64.05872501 -88.375 66.8125 C-81.82442734 70.76703078 -75.84687784 75.05014778 -70 80 C-69.17242188 80.62390625 -68.34484375 81.2478125 -67.4921875 81.890625 C-64.79566277 84.17295001 -62.88222625 86.51661597 -60.8125 89.375 C-60.13832031 90.29023437 -59.46414063 91.20546875 -58.76953125 92.1484375 C-53.48219753 100.66886491 -53.27075992 110.50809384 -55.125 120.125 C-58.39366053 133.40393341 -65.08450474 143.65828373 -76.875 150.9375 C-86.9733868 156.79226272 -98.88073222 157.91390307 -110.24609375 159.515625 C-111.79026253 159.7375487 -113.33437475 159.95986628 -114.87843323 160.18255615 C-118.0907656 160.64419174 -121.30376552 161.10076298 -124.51733398 161.55371094 C-128.63332983 162.13432544 -132.74727166 162.72829578 -136.86080837 163.32605362 C-140.03844513 163.78623137 -143.21708523 164.23914071 -146.3960743 164.68987274 C-147.91424525 164.90606658 -149.43208818 165.12457724 -150.94958305 165.34546661 C-153.06364043 165.65213864 -155.17885877 165.94892731 -157.29467773 166.24316406 C-158.49615952 166.41398499 -159.6976413 166.58480591 -160.93553162 166.76080322 C-163.66609236 166.97393687 -165.44177187 166.88564022 -168 166 C-166.845 165.484375 -165.69 164.96875 -164.5 164.4375 C-151.73452508 157.96486483 -144.70322979 145.8604677 -138.34765625 133.5546875 C-137 131 -137 131 -136 130 C-132.96465495 129.51874959 -129.93740112 129.09122184 -126.890625 128.6953125 C-125.00254787 128.43921682 -123.1145288 128.18269274 -121.2265625 127.92578125 C-118.24051437 127.52394533 -115.25413125 127.12554024 -112.26660156 126.73486328 C-109.38981415 126.35679029 -106.51523378 125.96456338 -103.640625 125.5703125 C-102.75086975 125.45769073 -101.8611145 125.34506897 -100.94439697 125.22903442 C-95.92769202 124.5299735 -91.73652495 123.73652495 -88 120 C-87.49830585 117.16926564 -87.49830585 117.16926564 -88 114 C-92.89645268 107.68199654 -100.48303754 103.74511962 -107.5 100.1875 C-118.56772297 94.1969982 -124.58723019 85.44694251 -128.80859375 73.76171875 C-132.49310433 60.26878691 -130.13164842 47.12685362 -123.82421875 35.03125 C-117.06529937 23.80015484 -107.44820865 16.83593099 -95 13 C-91.16213509 12.20350026 -87.30047815 11.66360289 -83.41796875 11.1328125 C-81.7439222 10.89279007 -81.7439222 10.89279007 -80.03605652 10.6479187 C-76.42103586 10.13165038 -72.80437165 9.62812137 -69.1875 9.125 C-66.70187239 8.77293434 -64.21635834 8.42006597 -61.73095703 8.06640625 C-56.78951152 7.36439456 -51.84743409 6.66711883 -46.90478516 5.97363281 C-40.8543554 5.12318043 -34.80729214 4.25142641 -28.76171875 3.3671875 C-26.37043953 3.01883456 -23.97912302 2.67073866 -21.58779907 2.32269287 C-20.12379196 2.10919646 -18.65990212 1.89489422 -17.19613647 1.67974854 C-15.20156318 1.38728333 -13.20626834 1.09975138 -11.2109375 0.8125 C-9.57584229 0.57466797 -9.57584229 0.57466797 -7.90771484 0.33203125 C-5.23863501 0.02724967 -2.6829529 -0.06451494 0 0 Z " fill="#FEFEFE" transform="translate(594,37)"/>
<path d="M0 0 C-0.59260322 7.74294039 -1.60628261 15.34012601 -2.90185547 22.99462891 C-3.09225403 24.13935669 -3.28265259 25.28408447 -3.4788208 26.46350098 C-4.10438916 30.21851556 -4.73571663 33.97253641 -5.3671875 37.7265625 C-5.80730878 40.36048997 -6.24712405 42.9944668 -6.68655396 45.62850952 C-7.60688102 51.14129943 -8.53016414 56.65358721 -9.45556641 62.16552734 C-10.75100703 69.88155629 -12.04092103 77.59850154 -13.32979751 85.31562924 C-14.34111491 91.3694653 -15.35411479 97.42301998 -16.3671875 103.4765625 C-16.57913631 104.74334461 -16.79108513 106.01012672 -17.00945663 107.31529617 C-19.28173975 120.88734942 -21.5708935 134.4550305 -24 148 C-27.33159653 148.72180479 -29.67678855 149.01072598 -33 148 C-36.20828403 144.78563967 -38.55154416 141.14078099 -40.88720703 137.27612305 C-41.99449802 135.4465907 -43.14569815 133.65200473 -44.30859375 131.85742188 C-50.47669313 122.09640461 -51.40743247 115.48393982 -49.50878906 104.23120117 C-49.3381897 103.17025238 -49.16759033 102.10930359 -48.99182129 101.01620483 C-48.42708162 97.52329473 -47.84698937 94.03314742 -47.265625 90.54296875 C-46.86727596 88.11404659 -46.46947691 85.68503417 -46.07220459 83.25593567 C-45.23838268 78.17343138 -44.39674285 73.09229737 -43.54980469 68.01196289 C-42.46328671 61.48959221 -41.39811389 54.96394157 -40.33893204 48.43708324 C-39.52284391 43.42484845 -38.69466072 38.41467024 -37.86284637 33.40502357 C-37.46497046 30.99863008 -37.07110909 28.59156935 -36.68128204 26.18385887 C-36.13620583 22.82764138 -35.57473194 19.47457884 -35.00878906 16.12182617 C-34.84969055 15.12078354 -34.69059204 14.11974091 -34.52667236 13.08836365 C-34.36964844 12.17858765 -34.21262451 11.26881165 -34.05084229 10.33146667 C-33.91957066 9.53859851 -33.78829903 8.74573034 -33.65304947 7.92883587 C-33 6 -33 6 -30 4 C-27.89853944 3.56627194 -25.77816583 3.22146994 -23.65234375 2.9296875 C-22.40775391 2.75566406 -21.16316406 2.58164063 -19.88085938 2.40234375 C-17.92889648 2.14130859 -17.92889648 2.14130859 -15.9375 1.875 C-14.63232422 1.69324219 -13.32714844 1.51148437 -11.98242188 1.32421875 C-2.3793468 0 -2.3793468 0 0 0 Z " fill="#FEFEFE" transform="translate(364,67)"/>
<path d="M0 0 C0.33 0 0.66 0 1 0 C1.34564715 6.96382293 0.05272599 13.61453826 -1.11132812 20.46264648 C-1.33841421 21.82318626 -1.56499899 23.18380979 -1.79112244 24.54450989 C-2.40379192 28.22252847 -3.02343545 31.89934118 -3.64436913 35.57597232 C-4.29307219 39.42432048 -4.93531157 43.273747 -5.57824707 47.12306213 C-6.7955441 54.40512045 -8.01862323 61.68619511 -9.24379969 68.9669314 C-10.63883635 77.25880799 -12.02739781 85.55176475 -13.4154253 93.84481704 C-16.26976375 110.89775397 -19.13220195 127.94932153 -22 145 C-26.18613079 145.67545765 -30.37409696 146.33879077 -34.5625 147 C-35.74392578 147.19078125 -36.92535156 147.3815625 -38.14257812 147.578125 C-43.81843825 148.468456 -49.25182969 149.27010492 -55 149 C-53.26207963 135.02041247 -51.05759101 121.14267406 -48.62133789 107.27026367 C-46.89476058 97.40082577 -45.276586 87.51800912 -43.71484375 77.62109375 C-43.31419086 75.10144517 -42.91331125 72.58183263 -42.51220703 70.06225586 C-41.9112628 66.28732969 -41.31435511 62.51200081 -40.73040771 58.73440552 C-40.18141002 55.18570581 -39.61753297 51.63965103 -39.05078125 48.09375 C-38.80726173 46.47894997 -38.80726173 46.47894997 -38.55882263 44.83152771 C-38.39801712 43.84233841 -38.23721161 42.85314911 -38.0715332 41.83398438 C-37.93640823 40.96914429 -37.80128326 40.1043042 -37.6620636 39.21325684 C-36.66222647 35.8708342 -34.87485906 34.51794312 -31.94140625 32.78125 C-31.15636719 32.3584375 -30.37132812 31.935625 -29.5625 31.5 C-17.73386952 24.49235428 -5.69697716 12.71099742 0 0 Z " fill="#FEFEFE" transform="translate(224,91)"/>
<path d="M0 0 C1.77745144 4.79236908 -0.32656009 8.13458906 -2.29296875 12.58203125 C-8.9398529 25.89100981 -17.94439624 36.96090949 -29.38671875 46.5 C-31.42716339 48.39716887 -32.59623772 50.61360412 -34 53 C-36.1875 53.8125 -36.1875 53.8125 -38 54 C-38.33 55.32 -38.66 56.64 -39 58 C-46.29602758 58.98215756 -50.35501349 56.42667494 -56.4609375 52.53125 C-58.79126655 50.82785605 -58.79126655 50.82785605 -61 51 C-61 50.34 -61 49.68 -61 49 C-63.65228812 47.92474806 -66.28368454 46.90543849 -69 46 C-69 45.34 -69 44.68 -69 44 C-70.32 43.34 -71.64 42.68 -73 42 C-71.79641403 38.57440916 -70.64107354 36.46741391 -68 34 C-65.24696439 35.43174014 -62.49814568 36.87139922 -59.75 38.3125 C-58.97269531 38.71662109 -58.19539062 39.12074219 -57.39453125 39.53710938 C-53.69262009 41.48298575 -50.32806985 43.45452083 -47 46 C-46.34 46 -45.68 46 -45 46 C-41.28630517 35.2255034 -39.24417319 25.77798759 -44 14.9375 C-44.66518511 13.62424851 -45.33164727 12.31164223 -46 11 C-46.33 10.01 -46.66 9.02 -47 8 C-45.0625 5.3125 -45.0625 5.3125 -43 3 C-40.36 3.66 -37.72 4.32 -35 5 C-35.66 5.66 -36.32 6.32 -37 7 C-36.505 8.485 -36.505 8.485 -36 10 C-35.34 10 -34.68 10 -34 10 C-33.32880451 11.4562545 -32.66318193 12.91507867 -32 14.375 C-31.62875 15.18710938 -31.2575 15.99921875 -30.875 16.8359375 C-30 19 -30 19 -30 21 C-28.02 21 -26.04 21 -24 21 C-23.67 20.34 -23.34 19.68 -23 19 C-21.33432452 18.66174849 -19.66749319 18.32917373 -18 18 C-10.25750109 14.04667459 -3.65586606 7.94753491 0 0 Z " fill="#0A0A0A" transform="translate(226,72)"/>
<path d="M0 0 C1.77745144 4.79236908 -0.32656009 8.13458906 -2.29296875 12.58203125 C-9.42781668 26.868054 -19.52001405 40.15523729 -33 49 C-35.2890625 49.7109375 -35.2890625 49.7109375 -37 50 C-36.42358005 39.86295948 -34.76356149 29.98242354 -33 20 C-30.03 20.33 -27.06 20.66 -24 21 C-23.67 20.34 -23.34 19.68 -23 19 C-21.33432452 18.66174849 -19.66749319 18.32917373 -18 18 C-10.25750109 14.04667459 -3.65586606 7.94753491 0 0 Z " fill="#FBFBFB" transform="translate(226,72)"/>
<path d="M0 0 C0 2.64 0 5.28 0 8 C-7.78029986 8.6568149 -15.56096606 9.30909263 -23.3421154 9.95575714 C-26.95612886 10.25624506 -30.57000363 10.55822937 -34.18359375 10.86376953 C-37.67814048 11.1591865 -41.17300866 11.45049502 -44.66812515 11.73908997 C-46.63452362 11.9024969 -48.60057737 12.07003547 -50.56661987 12.2376709 C-57.39703706 12.79788763 -64.14626156 13.15649222 -71 13 C-71 12.67 -71 12.34 -71 12 C-62.48197245 10.43018814 -53.96308497 8.86515382 -45.4430666 7.30618286 C-41.48675634 6.58211301 -37.53076 5.8564117 -33.57543945 5.12695312 C-29.75712811 4.42282492 -25.93804731 3.72302004 -22.11839867 3.02618408 C-20.66250669 2.75979895 -19.20689687 2.49186689 -17.75158119 2.22235107 C-15.71052364 1.84463459 -13.66852501 1.47246987 -11.6262207 1.1015625 C-10.46484085 0.88838379 -9.303461 0.67520508 -8.10688782 0.45556641 C-5.3429563 0.05028806 -2.78633397 -0.09196804 0 0 Z " fill="#FEFEFE" transform="translate(80,158)"/>
<path d="M0 0 C-0.875 6.875 -0.875 6.875 -2 8 C-3.83078371 8.2414642 -5.66995382 8.4196388 -7.51025391 8.57250977 C-8.68882965 8.67253799 -9.8674054 8.77256622 -11.08169556 8.87562561 C-12.36700165 8.97983322 -13.65230774 9.08404083 -14.9765625 9.19140625 C-16.29030853 9.30097153 -17.60405457 9.4105368 -18.95761108 9.52342224 C-21.74674119 9.75569665 -24.5361058 9.98483684 -27.32568359 10.21166992 C-30.88682546 10.50138445 -34.44738829 10.79759641 -38.00780678 11.09605503 C-40.75297899 11.32563623 -43.4983868 11.55228963 -46.24387741 11.77802849 C-48.19090298 11.93846782 -50.13776598 12.10087604 -52.08462524 12.26332092 C-57.73955295 12.72080095 -63.32583272 13.14224786 -69 13 C-66.17458773 11.11639182 -64.98304904 10.63915502 -61.7824707 10.08618164 C-60.93340652 9.93584976 -60.08434235 9.78551788 -59.20954895 9.63063049 C-58.29090561 9.47537399 -57.37226227 9.32011749 -56.42578125 9.16015625 C-55.46915085 8.99253281 -54.51252045 8.82490936 -53.52690125 8.65220642 C-50.45655598 8.11560566 -47.38463078 7.5887725 -44.3125 7.0625 C-41.29612112 6.53924813 -38.28009719 6.01398974 -35.26412964 5.4883728 C-33.29491377 5.14566682 -31.32545225 4.80436922 -29.35574341 4.46450806 C-22.27437863 3.23906732 -15.21737702 1.91420094 -8.16870117 0.51342773 C-5.36888838 0.05977134 -2.82708711 -0.10628648 0 0 Z " fill="#FEFEFE" transform="translate(72,216)"/>
<path d="M0 0 C-0.33 2.31 -0.66 4.62 -1 7 C-20.14 8.65 -39.28 10.3 -59 12 C-59 11.34 -59 10.68 -59 10 C-51.75086721 8.69310225 -44.50123655 7.38900495 -37.25095654 6.08848572 C-33.88442108 5.48452239 -30.51806501 4.87959387 -27.15209961 4.27246094 C-23.28290307 3.57460177 -19.4129602 2.88093803 -15.54296875 2.1875 C-14.33352097 1.96876221 -13.12407318 1.75002441 -11.87797546 1.5246582 C-10.75703995 1.32445068 -9.63610443 1.12424316 -8.48120117 0.91796875 C-6.99894295 0.65149536 -6.99894295 0.65149536 -5.48674011 0.37963867 C-3 0 -3 0 0 0 Z " fill="#FEFEFE" transform="translate(95,137)"/>
<path d="M0 0 C0.04254356 1.99954746 0.04080783 4.00041636 0 6 C-1.5940526 7.5940526 -3.36555316 7.30413267 -5.57641602 7.48071289 C-6.55155655 7.56072037 -7.52669708 7.64072784 -8.53138733 7.72315979 C-9.59481857 7.80549362 -10.65824982 7.88782745 -11.75390625 7.97265625 C-12.84332016 8.06002548 -13.93273407 8.14739471 -15.05516052 8.2374115 C-17.36936327 8.42194519 -19.6837476 8.60421334 -21.99829102 8.78442383 C-25.52343762 9.05945239 -29.04785877 9.34261919 -32.57226562 9.62695312 C-34.82027368 9.80517779 -37.06831949 9.98292711 -39.31640625 10.16015625 C-40.89029869 10.28669334 -40.89029869 10.28669334 -42.49598694 10.41578674 C-48.01774843 10.84135265 -53.46195829 11.08890308 -59 11 C-59 10.67 -59 10.34 -59 10 C-51.24129924 8.57090471 -43.48160499 7.14730359 -35.72119141 5.72753906 C-33.08058291 5.24417895 -30.4403055 4.75906527 -27.80029297 4.27246094 C-24.00808611 3.57415904 -20.21507483 2.88038505 -16.421875 2.1875 C-14.64825592 1.85939331 -14.64825592 1.85939331 -12.83880615 1.5246582 C-11.73796692 1.32445068 -10.63712769 1.12424316 -9.50292969 0.91796875 C-8.53474304 0.74031982 -7.5665564 0.5626709 -6.56903076 0.37963867 C-4 0 -4 0 0 0 Z " fill="#FEFEFE" transform="translate(86,187)"/>
<path d="M0 0 C0.33 0 0.66 0 1 0 C1 2.64 1 5.28 1 8 C1.969375 8.268125 2.93875 8.53625 3.9375 8.8125 C4.948125 9.204375 5.95875 9.59625 7 10 C7.495 11.485 7.495 11.485 8 13 C5.8125 14.625 5.8125 14.625 3 16 C0.6875 15.4375 0.6875 15.4375 -2 14 C-3.37337728 13.30926408 -4.74849344 12.62197858 -6.125 11.9375 C-6.78757813 11.59589844 -7.45015625 11.25429688 -8.1328125 10.90234375 C-11.82812341 9.1165345 -15.13594384 8.74245584 -19.1875 8.4375 C-20.27417969 8.35371094 -21.36085938 8.26992188 -22.48046875 8.18359375 C-23.31191406 8.12300781 -24.14335938 8.06242187 -25 8 C-25 7.34 -25 6.68 -25 6 C-21.13116676 5.09222907 -17.53269271 4.86564737 -13.5625 4.875 C-12.47066406 4.87242188 -11.37882813 4.86984375 -10.25390625 4.8671875 C-7.08807476 4.99640511 -4.10964455 5.40902683 -1 6 C-0.67 4.02 -0.34 2.04 0 0 Z " fill="#191919" transform="translate(147,16)"/>
<path d="M0 0 C0.33 0 0.66 0 1 0 C1.17568413 4.47994538 1.29545711 8.06493066 -1 12 C-3.25 13.5625 -3.25 13.5625 -6 15 C-6.845625 15.721875 -7.69125 16.44375 -8.5625 17.1875 C-13.62028869 19.85433404 -18.39312786 19.32661391 -24 19 C-21.35442725 16.07374572 -19.5178577 14.56387986 -15.6875 13.625 C-8.18634498 11.34257618 -4.01516175 6.48603052 0 0 Z " fill="#CBCBCB" transform="translate(146,89)"/>
<path d="M0 0 C-2.9710633 1.5753545 -5.93674473 2.69034664 -9.125 3.75 C-21.69465155 8.30712467 -33.20678481 16.1412728 -39.2578125 28.34765625 C-39.50273438 28.89292969 -39.74765625 29.43820313 -40 30 C-41 27 -41 27 -40.28515625 25.01953125 C-33.6113192 12.9725091 -23.37248231 4.90122805 -10.0625 1.0625 C-6.62336732 0.19623279 -3.54524891 -0.10781616 0 0 Z " fill="#040404" transform="translate(145,74)"/>
<path d="M0 0 C0.33 0.66 0.66 1.32 1 2 C0.0390625 4.0234375 0.0390625 4.0234375 -1.375 6.375 C-4.01573218 10.78605543 -5.13442887 14.17995763 -5.09765625 19.328125 C-5.09443359 20.12734375 -5.09121094 20.9265625 -5.08789062 21.75 C-5.07951172 22.575 -5.07113281 23.4 -5.0625 24.25 C-5.05798828 25.09046875 -5.05347656 25.9309375 -5.04882812 26.796875 C-5.03707961 28.86461401 -5.01914522 30.93231624 -5 33 C-6.32 33 -7.64 33 -9 33 C-9.48401938 20.39756935 -8.15423449 10.0957189 0 0 Z " fill="#000000" transform="translate(107,75)"/>
<path d="M0 0 C0.93065133 2.60582371 1.14917407 3.64198224 0.0625 6.25 C-0.288125 6.8275 -0.63875 7.405 -1 8 C-1.66 8 -2.32 8 -3 8 C-3 11.96 -3 15.92 -3 20 C-0.69 19.34 1.62 18.68 4 18 C4 18.99 4 19.98 4 21 C3.16855469 21.39832031 2.33710938 21.79664062 1.48046875 22.20703125 C0.39378906 22.73683594 -0.69289062 23.26664063 -1.8125 23.8125 C-2.89144531 24.33457031 -3.97039062 24.85664062 -5.08203125 25.39453125 C-7.56579702 26.76110117 -9.1799378 27.87340101 -11 30 C-11.66 29.67 -12.32 29.34 -13 29 C-11.865625 28.360625 -10.73125 27.72125 -9.5625 27.0625 C-6.552383 24.58036723 -5.74738397 22.57963512 -5.3125 18.81640625 C-5.01333084 14.54391073 -4.96662369 10.28170407 -5 6 C-4.34 6 -3.68 6 -3 6 C-2.01 4.02 -1.02 2.04 0 0 Z " fill="#929292" transform="translate(165,41)"/>
<path d="M0 0 C9.34284596 3.20326147 15.08456418 11.15246872 19.3671875 19.7421875 C22.00687905 26.38958592 22.75165999 32.88505885 23 40 C22.67 40 22.34 40 22 40 C21.79246094 39.06800781 21.58492187 38.13601562 21.37109375 37.17578125 C18.28106339 24.38900288 13.40132233 13.47113413 4 4 C3.195625 3.175 2.39125 2.35 1.5625 1.5 C1.046875 1.005 0.53125 0.51 0 0 Z " fill="#050505" transform="translate(124,26)"/>
<path d="M0 0 C9.46017586 3.31935995 16.15347828 11.4871976 21 20 C23.79634883 26.00635873 25.59051685 31.35668546 25 38 C24.67 38 24.34 38 24 38 C23.84144531 37.31035156 23.68289062 36.62070313 23.51953125 35.91015625 C20.06573694 21.99957034 12.63511646 11.71301953 1.72265625 2.53125 C1.15417969 2.0259375 0.58570313 1.520625 0 1 C0 0.67 0 0.34 0 0 Z " fill="#050505" transform="translate(156,77)"/>
<path d="M0 0 C0.66 0.33 1.32 0.66 2 1 C-5.58936621 7.89942383 -13.23296344 7.26437091 -23 7 C-23.33 6.34 -23.66 5.68 -24 5 C-22.72125 4.87625 -21.4425 4.7525 -20.125 4.625 C-16.65209064 4.30957601 -16.65209064 4.30957601 -14 2 C-10.99609375 1.62109375 -10.99609375 1.62109375 -7.4375 1.4375 C-3.39913054 1.57774774 -3.39913054 1.57774774 0 0 Z " fill="#DFDFDF" transform="translate(136,106)"/>
<path d="M0 0 C1.74627478 2.61941217 2.38722388 4.03824877 3 7 C1.75482035 8.13033298 0.50363348 9.25405036 -0.75 10.375 C-1.44609375 11.00148438 -2.1421875 11.62796875 -2.859375 12.2734375 C-4.84508688 13.87505183 -6.67954093 14.96520068 -9 16 C-8.4376049 12.73810844 -7.5859495 11.08865152 -5 9 C-4.01 8.67 -3.02 8.34 -2 8 C-1.19787372 6.12612784 -1.19787372 6.12612784 -0.8125 3.9375 C-0.57466797 2.83728516 -0.57466797 2.83728516 -0.33203125 1.71484375 C-0.22246094 1.14894531 -0.11289063 0.58304687 0 0 Z " fill="#DFDFDF" transform="translate(147,92)"/>
<path d="M0 0 C0.33 0.99 0.66 1.98 1 3 C0.16855469 3.39832031 -0.66289062 3.79664063 -1.51953125 4.20703125 C-2.60621094 4.73683594 -3.69289062 5.26664062 -4.8125 5.8125 C-6.43091797 6.59560547 -6.43091797 6.59560547 -8.08203125 7.39453125 C-10.56579702 8.76110117 -12.1799378 9.87340101 -14 12 C-14.66 11.67 -15.32 11.34 -16 11 C-10.98601602 6.25271729 -6.31506393 2.81922497 0 0 Z " fill="#090909" transform="translate(168,59)"/>
<path d="M0 0 C0.33 0 0.66 0 1 0 C1.17835515 4.54805635 0.99785435 7.8794254 -1 12 C-1.66 12 -2.32 12 -3 12 C-2.88541307 10.56163249 -2.75790884 9.12429034 -2.625 7.6875 C-2.55539063 6.88699219 -2.48578125 6.08648437 -2.4140625 5.26171875 C-2 3 -2 3 0 0 Z " fill="#030303" transform="translate(146,89)"/>
<path d="M0 0 C0.98484375 0.10183594 1.9696875 0.20367187 2.984375 0.30859375 C4.10585937 0.43427734 4.10585937 0.43427734 5.25 0.5625 C4.92 1.2225 4.59 1.8825 4.25 2.5625 C-0.04 2.5625 -4.33 2.5625 -8.75 2.5625 C-9.08 1.9025 -9.41 1.2425 -9.75 0.5625 C-6.33860997 -0.53401823 -3.54344419 -0.37965473 0 0 Z " fill="#E6E6E6" transform="translate(121.75,110.4375)"/>
<path d="M0 0 C1.8871875 0.061875 1.8871875 0.061875 3.8125 0.125 C2.8225 1.61 2.8225 1.61 1.8125 3.125 C-1.1575 2.795 -4.1275 2.465 -7.1875 2.125 C-4.09861478 0.06574319 -3.47814073 -0.1140374 0 0 Z " fill="#171717" transform="translate(110.1875,117.875)"/>
<path d="M0 0 C1.74627478 2.61941217 2.38722388 4.03824877 3 7 C1.35 7.66 -0.3 8.32 -2 9 C-1.34 6.03 -0.68 3.06 0 0 Z " fill="#D5D5D5" transform="translate(147,92)"/>
<path d="M0 0 C0 1.65 0 3.3 0 5 C-1.98 5 -3.96 5 -6 5 C-1.125 0 -1.125 0 0 0 Z " fill="#D6D6D6" transform="translate(160,66)"/>
<path d="M0 0 C0.33 0 0.66 0 1 0 C1 2.64 1 5.28 1 8 C0.34 8 -0.32 8 -1 8 C-0.67 5.36 -0.34 2.72 0 0 Z " fill="#FEFEFE" transform="translate(166,125)"/>
<path d="M0 0 C0.66 0.33 1.32 0.66 2 1 C2 1.66 2 2.32 2 3 C1.01 2.67 0.02 2.34 -1 2 C-0.67 1.34 -0.34 0.68 0 0 Z " fill="#FEFEFE" transform="translate(101,16)"/>
<path d="M0 0 C0.66 0 1.32 0 2 0 C2 0.66 2 1.32 2 2 C1.34 2 0.68 2 0 2 C0 1.34 0 0.68 0 0 Z " fill="#FFFFFF" transform="translate(100,122)"/>
<path d="M0 0 C0.66 0 1.32 0 2 0 C2 0.66 2 1.32 2 2 C1.34 2 0.68 2 0 2 C0 1.34 0 0.68 0 0 Z " fill="#FEFEFE" transform="translate(197,73)"/>
<path d="M0 0 C4 1 4 1 4 1 Z " fill="#FEFEFE" transform="translate(103,42)"/>
<path d="M0 0 C0.99 0.495 0.99 0.495 2 1 C1.34 1.66 0.68 2.32 0 3 C0 2.01 0 1.02 0 0 Z " fill="#FFFFFF" transform="translate(111,27)"/>
<path d="M0 0 C0.66 0 1.32 0 2 0 C2 0.66 2 1.32 2 2 C1.34 2 0.68 2 0 2 C0 1.34 0 0.68 0 0 Z " fill="#FFFFFF" transform="translate(151,2)"/>
<path d="M0 0 C0.33 0.66 0.66 1.32 1 2 C0.34 1.67 -0.32 1.34 -1 1 C-0.67 0.67 -0.34 0.34 0 0 Z " fill="#FEFEFE" transform="translate(159,120)"/>
<path d="M0 0 C0.66 0.66 1.32 1.32 2 2 C1.34 2 0.68 2 0 2 C0 1.34 0 0.68 0 0 Z " fill="#FEFEFE" transform="translate(100,42)"/>
<path d="M0 0 C0.66 0.66 1.32 1.32 2 2 C1.34 2 0.68 2 0 2 C0 1.34 0 0.68 0 0 Z " fill="#FFFFFF" transform="translate(153,14)"/>
<path d="M0 0 C2 1 2 1 2 1 Z " fill="#FEFEFE" transform="translate(1,256)"/>
<path d="" fill="#FEFEFE" transform="translate(0,0)"/>
<path d="M0 0 C2 1 2 1 2 1 Z " fill="#FEFEFE" transform="translate(113,44)"/>
<path d="M0 0 C2 1 2 1 2 1 Z " fill="#FEFEFE" transform="translate(110,43)"/>
<path d="" fill="#FEFEFE" transform="translate(0,0)"/>
<path d="" fill="#FEFEFE" transform="translate(0,0)"/>
<path d="" fill="#FEFEFE" transform="translate(0,0)"/>
<path d="" fill="#FFFFFF" transform="translate(0,0)"/>
<path d="" fill="#FFFFFF" transform="translate(0,0)"/>
<path d="" fill="#FFFFFF" transform="translate(0,0)"/>
<path d="" fill="#FEFEFE" transform="translate(0,0)"/>
<path d="" fill="#FEFEFE" transform="translate(0,0)"/>
<path d="" fill="#FEFEFE" transform="translate(0,0)"/>
<path d="" fill="#FEFEFE" transform="translate(0,0)"/>
<path d="" fill="#FEFEFE" transform="translate(0,0)"/>
<path d="" fill="#FEFEFE" transform="translate(0,0)"/>
<path d="" fill="#FEFEFE" transform="translate(0,0)"/>
<path d="" fill="#FEFEFE" transform="translate(0,0)"/>
<path d="" fill="#FEFEFE" transform="translate(0,0)"/>
<path d="" fill="#FEFEFE" transform="translate(0,0)"/>
<path d="" fill="#FEFEFE" transform="translate(0,0)"/>
<path d="" fill="#FEFEFE" transform="translate(0,0)"/>
<path d="" fill="#FEFEFE" transform="translate(0,0)"/>
<path d="" fill="#FFFFFF" transform="translate(0,0)"/>
<path d="" fill="#FEFEFE" transform="translate(0,0)"/>
<path d="" fill="#FEFEFE" transform="translate(0,0)"/>
<path d="" fill="#FEFEFE" transform="translate(0,0)"/>
<path d="" fill="#FEFEFE" transform="translate(0,0)"/>
<path d="" fill="#FEFEFE" transform="translate(0,0)"/>
<path d="" fill="#FFFFFF" transform="translate(0,0)"/>
<path d="" fill="#FEFEFE" transform="translate(0,0)"/>
<path d="" fill="#FEFEFE" transform="translate(0,0)"/>
<path d="" fill="#FEFEFE" transform="translate(0,0)"/>
<path d="" fill="#FEFEFE" transform="translate(0,0)"/>
<path d="" fill="#FEFEFE" transform="translate(0,0)"/>
<path d="" fill="#FFFFFF" transform="translate(0,0)"/>
<path d="" fill="#FEFEFE" transform="translate(0,0)"/>
<path d="" fill="#FEFEFE" transform="translate(0,0)"/>
<path d="" fill="#FEFEFE" transform="translate(0,0)"/>
<path d="" fill="#FEFEFE" transform="translate(0,0)"/>
</svg>
